<?xml version="1.0" encoding="UTF-8"?><svg id="LOGO" xmlns="http://www.w3.org/2000/svg" viewBox="0 0 1759.05 1261.2"><path d="m86.07,1256.97L5.4,945.75h62.11c27.46,128.91,47.71,214.73,52.07,249.42h.45c10.58-51.33,44.98-172.8,63.88-249.42h53.5c16.91,63.07,52.17,196.6,61.22,246.76h.45c10.22-63.48,45.2-193.07,58.28-246.76h56.93l-86.52,311.21h-61.02c-17.23-69.83-48.93-186.78-58.75-234.6h-.45c-10.62,52.31-42.82,168.92-60.59,234.6h-60.89Z" fill="#3a9d50" stroke-width="0"/><path d="m475.7,945.75v311.21h-58.37v-311.21h58.37Z" fill="#3a9d50" stroke-width="0"/><path d="m546.66,1167.32c7.56,33.33,31.04,49.25,70.17,49.25s56.94-17.13,56.94-42.18c0-27.35-15.12-40.56-71.48-53.88-80.8-19.17-103.29-48.03-103.29-90.64,0-51.49,38.35-88.62,110.58-88.62,79.71,0,111.8,43.88,116.16,87.81h-58.96c-4.05-22.08-16.95-43.54-58.88-43.54-30.94,0-49.06,13.26-49.06,37.95s14.71,33.95,66.45,46.15c89.91,21.42,108.32,55.39,108.32,97.92,0,54.55-41.01,93.66-121.16,93.66s-117.64-40.22-124.76-93.88h58.96Z" fill="#3a9d50" stroke-width="0"/><path d="m790.56,1167.32c7.56,33.33,31.04,49.25,70.17,49.25s56.94-17.13,56.94-42.18c0-27.35-15.12-40.56-71.48-53.88-80.8-19.17-103.29-48.03-103.29-90.64,0-51.49,38.35-88.62,110.58-88.62,79.71,0,111.8,43.88,116.17,87.81h-58.96c-4.05-22.08-16.95-43.54-58.88-43.54-30.94,0-49.06,13.26-49.06,37.95s14.71,33.95,66.45,46.15c89.91,21.42,108.32,55.39,108.32,97.92,0,54.55-41.01,93.66-121.16,93.66s-117.64-40.22-124.76-93.88h58.96Z" fill="#3a9d50" stroke-width="0"/><path d="m1198.29,1118.89h-150.87v89.71h166.17l-7.07,48.37h-215.89v-311.21h214.5v48.37h-157.71v76.4h150.87v48.37Z" fill="#3a9d50" stroke-width="0"/><path d="m1224.17,1256.97v-311.21h73.54c40.85,70.87,121.34,206.75,136.73,240.64h.77c-3.33-35.04-3.2-87.38-3.2-138.37v-102.27h53.46v311.21h-69.58c-36.07-63.12-123.1-215.35-139.92-250.95h-.77c2.25,30.04,2.75,90.14,2.75,146.03v104.92h-53.77Z" fill="#3a9d50" stroke-width="0"/><path d="m1556.46,1167.32c7.56,33.33,31.04,49.25,70.17,49.25s56.94-17.13,56.94-42.18c0-27.35-15.12-40.56-71.48-53.88-80.79-19.17-103.29-48.03-103.29-90.64,0-51.49,38.35-88.62,110.58-88.62,79.71,0,111.8,43.88,116.17,87.81h-58.96c-4.04-22.08-16.95-43.54-58.87-43.54-30.94,0-49.06,13.26-49.06,37.95s14.71,33.95,66.45,46.15c89.91,21.42,108.32,55.39,108.32,97.92,0,54.55-41.01,93.66-121.16,93.66s-117.64-40.22-124.76-93.88h58.96Z" fill="#3a9d50" stroke-width="0"/><path d="m299.21,888.95h-46.16c-2.59-8.89-4.23-21.46-5.04-36.93-17.05,24.38-48.16,42.12-99.06,42.12C52.8,894.14,0,821.37,0,726.86c0-99.65,56.84-174.67,159.95-174.67,82.57,0,132.26,46,140.8,103.54h-62.26c-8.34-27.33-29.01-53.97-79.5-53.97-71.21,0-94.47,58.55-94.47,122.31s25.18,119.81,94.14,119.81,79.59-44.96,79.59-83.69v-3.17h-79.88v-51.59h140.84v183.51Z" fill="#0e2f52" stroke-width="0"/><path d="m553.04,741.67h-160.93v95.69h177.25l-7.54,51.59h-230.28v-331.96h228.8v51.59h-168.22v81.49h160.93v51.59Z" fill="#0e2f52" stroke-width="0"/><path d="m884.56,721.58c0,92.02-54.01,172.17-160.72,172.17s-156.49-75.65-156.49-170.78,58.66-170.78,160.86-170.78c95.86,0,156.35,68.78,156.35,169.39Zm-252.69-.05c0,67.18,31.28,120.96,94.42,120.96,68.37,0,93.75-56.91,93.75-120.1s-28.83-118.95-94.47-118.95-93.7,51.33-93.7,118.08Z" fill="#0e2f52" stroke-width="0"/><path d="m1067.77,645.46c-19-6.76-33.44-20.24-49.26-31.81-63.51-46.48-112.65-108.62-173.29-158.28-17.36-14.22-30.78-32.91-42.12-52.55-5.21-9.03-9.01-10.21-17.86-2.67-43.36,36.93-83.29,77.97-131.02,109.72-8.03,5.34-14.57,12.89-22.17,18.96-3.12,2.49-6.52,8.09-10.94,4.56-3.57-2.86.33-7.38,1.89-10.84,8.35-18.62,17.5-37.11,30.04-53.03,32.82-41.68,64.29-84.53,101.15-122.9,13.69-14.25,34.36-16.66,51.46-5.37,24.7,16.3,44.68,37.24,61.12,61.89,19.23,28.81,18.89,27.52,47.62,9.21,42.78-27.27,72.71-66.79,104.3-104.87,20.9-25.19,41.66-50.51,62.33-75.89,12.68-15.58,26.87-29.28,44.55-39.24,7.69-4.33,14.69-9.64,19.95-17.17,7.74-11.09,15.29-12.36,27.09-5.09,13.96,8.6,21.6,21.97,26.33,37.04,12.57,40.04,29.13,78.75,39.67,119.47,2.28,8.81,8.46,15.69,17.19,16.76,33.17,4.05,48.03,29.16,65.15,52.97,24.96,34.74,38.79,74.01,50.88,114.3,4.55,15.18,8.44,30.72,18.24,43.83,5.64,7.54,11.03,9.5,18.2,1.85,32.58-34.76,70.39-64.91,94.43-107.22,5.71-10.05,14.33-12.51,24.94-8.79,6.26,2.19,12.49,4.5,18.64,6.97,7.4,2.97,11.08,7.24,12.16,16.52,2.26,19.44,13.53,35.34,26.83,49.24,8.08,8.44,13.87,17.96,19.53,28.06,18.68,33.38,44.3,61.19,73.21,85.9,7.76,6.63,12.64,13.81,15.67,23.62,11.08,35.85,26.15,69.58,56.18,94.27,2.04,1.68,4,3.55,5.63,5.62,1.81,2.3,5.1,4.81,2.75,7.99-2.57,3.49-5.62.48-8.2-.83-33.51-17.07-59.03-44.14-85.75-69.52-8.68-8.25-10.53-21.2-15.7-31.9-14.16-29.29-33.5-53.99-61.74-70.88-20.54-12.28-31.94-31.26-39.96-52.9-3.84-10.36-7.89-20.64-11.52-31.07-2.8-8.02-5.43-9.1-12.33-2.67-58.02,54.05-114.95,109.39-176.12,159.87-24.01,19.82-49.14,39.25-78.93,50.67-3.43,1.32-7.38,5.46-10.7,1.08-2.97-3.91.88-7.47,3.07-10.62,9.67-13.85,20.94-26.38,33.43-37.68,26.91-24.33,52.06-50.63,80.6-73.13,5.86-4.62,6.9-7.97,2.13-13.78-4.75-5.79-8.31-12.58-13.15-18.29-31.09-36.73-42.85-83.82-66.73-124.44-7.75-13.18-17.59-22.45-30.33-30.33-33.7-20.83-55.71-50.77-64.51-89.57-5.51-24.31-18.35-44.88-31.38-65.34-5.31-8.35-16.61-5.66-27.27-.62-36.65,17.34-56.31,51.19-81.1,80.11-17.31,20.2-34.76,40.16-58.66,53.16-4.09,2.22-8.26,5.96-10.28,10.04-13.25,26.78-33.48,47.67-55.73,66.76-10.07,8.64-9.53,13.96-.72,24.77,25.39,31.16,51.46,61.6,79.14,90.75,11.27,11.86,19.71,26.11,26.64,41.05,5.9,12.71,19.35,19.17,25.32,32.28Z" fill="#0e2f52" stroke-width="0"/><path d="m1544.24,252.55c-94.46-91.69-209.12-144.73-335.66-174.58-129.5-30.54-260.49-32.78-391.75-15.91-146.55,18.83-280.65,72.69-405.04,151.47-89.81,56.88-171.56,123.52-242.47,203.06-7.65,8.58-16.17,16.43-26.36,22.04-13.66,7.52-26.13,5.42-35.91-5.68-8.57-9.71-8.46-21.05.55-33.82,89.74-127.17,205.88-223.01,345.53-290.85,105.04-51.03,215.64-84.26,331.42-98.4,163.74-20,325.08-12.35,480.9,48.52,105.43,41.19,197.93,101.58,275.42,184.43,2.11,2.25,4,4.7,5.99,7.06,1.13,2.85-.13,3.36-2.62,2.67Z" fill="#0d2f52" stroke-width="0"/></svg>